<svg xmlns="http://www.w3.org/2000/svg" width="16" height="16" viewBox="0 0 16 16" fill="none">
  <path fill-rule="evenodd" clip-rule="evenodd" d="M7.9998 2.8C6.89524 2.8 5.9998 3.69543 5.9998 4.8C5.9998 5.90457 6.89524 6.8 7.9998 6.8C9.10437 6.8 9.9998 5.90457 9.9998 4.8C9.9998 3.69543 9.10437 2.8 7.9998 2.8ZM5.1998 4.8C5.1998 3.2536 6.45341 2 7.9998 2C9.5462 2 10.7998 3.2536 10.7998 4.8C10.7998 6.3464 9.5462 7.6 7.9998 7.6C6.45341 7.6 5.1998 6.3464 5.1998 4.8Z" fill="#606B85"/>
  <path fill-rule="evenodd" clip-rule="evenodd" d="M7.9998 9.2C5.56975 9.2 3.5998 11.1699 3.5998 13.6C3.5998 13.8209 3.42072 14 3.1998 14C2.97889 14 2.7998 13.8209 2.7998 13.6C2.7998 10.7281 5.12792 8.4 7.9998 8.4C10.8717 8.4 13.1998 10.7281 13.1998 13.6C13.1998 13.8209 13.0207 14 12.7998 14C12.5789 14 12.3998 13.8209 12.3998 13.6C12.3998 11.1699 10.4299 9.2 7.9998 9.2Z" fill="#606B85"/>
</svg>