<svg xmlns="http://www.w3.org/2000/svg" width="20" height="20" viewBox="0 0 20 20" fill="none">
  <path fill-rule="evenodd" clip-rule="evenodd" d="M4.5 5C4.5 4.72386 4.72386 4.5 5 4.5H5.1H8.4C8.67614 4.5 8.9 4.72386 8.9 5V5.1C8.9 5.37614 8.67614 5.6 8.4 5.6H5.6V14.4H14.4V11.6C14.4 11.3239 14.6239 11.1 14.9 11.1H15C15.2761 11.1 15.5 11.3239 15.5 11.6V14.9V15C15.5 15.2761 15.2761 15.5 15 15.5H14.9H5.1H5C4.72386 15.5 4.5 15.2761 4.5 15V14.9V5.1V5ZM11.1 5C11.1 4.72386 11.3239 4.5 11.6 4.5H14.8889H14.9H15C15.2761 4.5 15.5 4.72386 15.5 5V5.1V8.4C15.5 8.67614 15.2761 8.9 15 8.9H14.9C14.6239 8.9 14.4 8.67614 14.4 8.4V6.46424L10.4321 10.4321C10.1935 10.6708 9.80653 10.6708 9.56788 10.4321C9.32923 10.1935 9.32923 9.80653 9.56788 9.56788L13.5358 5.6H11.6C11.3239 5.6 11.1 5.37614 11.1 5.1V5Z" fill="#0263E0"/>
</svg>