<svg width="20" height="20" viewBox="0 0 20 20" fill="none" xmlns="http://www.w3.org/2000/svg">
<g id="Icon &#226;&#134;&#147;">
<path id="Icon &#226;&#134;&#147;_2" fill-rule="evenodd" clip-rule="evenodd" d="M3.3017 2.75472C3.91641 2.26438 4.67988 1.99818 5.46619 2.00001L5.46736 2.00001H7.73384C8.48041 2.00012 9.20708 2.24114 9.8057 2.68725C10.4043 3.13338 10.843 3.76078 11.0565 4.47619C11.1355 4.7408 11.414 4.89128 11.6787 4.81231C11.9433 4.73334 12.0937 4.45481 12.0148 4.1902C11.7397 3.2685 11.1745 2.46019 10.4032 1.88542C9.63199 1.31065 8.69584 1.00013 7.73396 1.00001H5.46791C4.45443 0.997791 3.47043 1.34096 2.67812 1.97297C1.88565 2.6051 1.33227 3.48843 1.10924 4.47729C0.886215 5.46615 1.00685 6.5015 1.45126 7.41259C1.84839 8.22677 2.48287 8.89827 3.26745 9.34092V12.8327C3.26745 13.035 3.38927 13.2173 3.5761 13.2947C3.76294 13.3721 3.978 13.3293 4.121 13.1863L6.38755 10.9198C6.58281 10.7245 6.58281 10.4079 6.38755 10.2126C6.19228 10.0174 5.8757 10.0174 5.68044 10.2126L4.26745 11.6256V9.03703C4.26745 8.84362 4.1559 8.66756 3.98102 8.58494C3.27004 8.24907 2.69476 7.68092 2.35004 6.97419C2.00531 6.26746 1.91174 5.46436 2.08474 4.6973C2.25774 3.93025 2.68699 3.24506 3.3017 2.75472ZM12.267 6.66638C11.0824 6.66638 9.94636 7.13695 9.10874 7.97458C8.27111 8.8122 7.80054 9.94826 7.80054 11.1328C7.80054 12.3174 8.27111 13.4535 9.10874 14.2911C9.94636 15.1287 11.0824 15.5993 12.267 15.5993H12.6265L15.8799 18.8527C16.0229 18.9957 16.238 19.0384 16.4248 18.9611C16.6116 18.8837 16.7335 18.7013 16.7335 18.4991V15.0072C17.371 14.6473 17.9116 14.135 18.3057 13.5142C18.7576 12.8023 18.9983 11.977 19 11.1338C19 9.94926 18.5294 8.8122 17.6918 7.97458C16.8542 7.13695 15.7181 6.66638 14.5335 6.66638H12.267ZM9.81584 8.68168C10.4659 8.0316 11.3476 7.66638 12.267 7.66638H14.5335C15.4529 7.66638 16.3346 8.0316 16.9847 8.68168C17.6347 9.33165 17.9999 10.2131 18 11.1323C17.9986 11.7862 17.8119 12.4262 17.4615 12.9783C17.1109 13.5304 16.611 13.9719 16.0198 14.2514C15.845 14.334 15.7335 14.51 15.7335 14.7034V17.292L13.1872 14.7457C13.0934 14.652 12.9662 14.5993 12.8336 14.5993H12.267C11.3476 14.5993 10.4659 14.2341 9.81584 13.584C9.16576 12.9339 8.80054 12.0522 8.80054 11.1328C8.80054 10.2135 9.16576 9.33177 9.81584 8.68168Z" fill="#121C2D"/>
</g>
</svg>
