<svg width="20" height="20" viewBox="0 0 20 20" fill="none" xmlns="http://www.w3.org/2000/svg">
<g id="Icon &#226;&#134;&#147;">
<path id="Icon &#226;&#134;&#147;_2" fill-rule="evenodd" clip-rule="evenodd" d="M4.14122 2.98086C4.45093 2.67177 4.86868 2.5 5.30209 2.5C5.73561 2.5 6.15345 2.67185 6.46319 2.98108C6.46318 2.98107 6.46319 2.98108 6.46319 2.98108L8.49208 5.00653C8.64567 5.15981 8.76808 5.34241 8.8518 5.54416C8.93552 5.74594 8.97876 5.9626 8.97876 6.18167C8.97876 6.40074 8.93552 6.61741 8.8518 6.81919C8.76808 7.02094 8.64567 7.20353 8.49208 7.35682C8.37191 7.47696 8.30638 7.63751 8.30638 7.80261C8.30638 7.96777 8.37197 8.12841 8.49225 8.24856L11.7375 11.4903C11.7375 11.4903 11.7376 11.4903 11.7375 11.4903C11.8582 11.6107 12.0241 11.6803 12.1991 11.6803C12.3741 11.6803 12.5399 11.6109 12.6605 11.4905C12.814 11.3371 12.9957 11.216 13.1949 11.1336C13.394 11.0511 13.6072 11.0088 13.8222 11.0088C14.0372 11.0088 14.2503 11.0511 14.4495 11.1336C14.6486 11.216 14.8302 11.337 14.9836 11.4902C14.9835 11.4902 14.9837 11.4903 14.9836 11.4902L17.0133 13.5157C17.1669 13.669 17.2893 13.8516 17.373 14.0534C17.4568 14.2552 17.5 14.4718 17.5 14.6909C17.5 14.91 17.4568 15.1266 17.373 15.3284C17.2893 15.5302 17.1669 15.7128 17.0133 15.866L16.5323 16.3464C15.8972 16.9811 15.0659 17.379 14.1764 17.4765C13.287 17.5741 12.39 17.3658 11.6335 16.8848C11.6274 16.8809 11.6214 16.8769 11.6154 16.8727L11.6111 16.8697C8.26971 14.6145 5.39133 11.7403 3.13211 8.40213C3.12696 8.39451 3.12201 8.38675 3.11727 8.37886L3.11608 8.37689C2.63502 7.61963 2.42549 6.72 2.52362 5.82621C2.622 4.93013 3.02338 4.09625 3.659 3.46168L4.14122 2.98086C4.1413 2.98079 4.14114 2.98094 4.14122 2.98086ZM5.30209 3.51993C5.12702 3.51993 4.96118 3.58947 4.84051 3.70995L4.35852 4.19054C3.8857 4.66258 3.58985 5.27986 3.51741 5.9397C3.44498 6.59948 3.5999 7.26503 3.95814 7.82671L3.96382 7.83562C6.14932 11.0613 8.93344 13.8401 12.1663 16.0214L12.1724 16.0255C12.7359 16.3807 13.4048 16.5353 14.0695 16.4624C14.738 16.3891 15.3597 16.0904 15.8325 15.6179L16.3138 15.1372C16.3735 15.0776 16.4204 15.0073 16.4521 14.9309C16.4838 14.8545 16.5 14.773 16.5 14.6909C16.5 14.6088 16.4838 14.5273 16.4521 14.4509C16.4204 14.3745 16.3736 14.3043 16.3139 14.2448C16.3139 14.2447 16.3139 14.2448 16.3139 14.2448L14.2842 12.2193C14.2246 12.1596 14.1529 12.1115 14.0735 12.0787C13.9941 12.0458 13.9087 12.0288 13.8222 12.0288C13.7357 12.0288 13.6502 12.0458 13.5709 12.0787C13.4915 12.1115 13.4201 12.1594 13.3604 12.219C13.0506 12.5282 12.6326 12.7003 12.1991 12.7003C11.7656 12.7003 11.3477 12.5284 11.038 12.2192L7.79253 8.97721C7.48252 8.66753 7.30638 8.24523 7.30638 7.80261C7.30638 7.35998 7.48251 6.9377 7.79251 6.62801C7.85221 6.56843 7.89916 6.49811 7.93088 6.42167C7.96258 6.34525 7.97876 6.26373 7.97876 6.18167C7.97876 6.09961 7.96258 6.01809 7.93088 5.94168C7.89916 5.86524 7.85238 5.79508 7.79268 5.7355L5.7637 3.70996C5.64302 3.58948 5.47717 3.51993 5.30209 3.51993Z" fill="#121C2D"/>
</g>
</svg>
